<?xml version="1.0" encoding="utf-8"?>
<!-- Generator: Adobe Illustrator 26.0.2, SVG Export Plug-In . SVG Version: 6.00 Build 0)  -->
<svg version="1.1" id="レイヤー_1" xmlns="http://www.w3.org/2000/svg" xmlns:xlink="http://www.w3.org/1999/xlink" x="0px"
	 y="0px" width="25px" height="24.8px" viewBox="0 0 25 24.8" style="enable-background:new 0 0 25 24.8;" xml:space="preserve">
<style type="text/css">
	.st0{fill:#211815;}
</style>
<path class="st0" d="M12.5,0C5.6,0,0,5.6,0,12.5c0,6.1,4.5,11.4,10.5,12.3v-8.7H7.4v-3.6h3.2V9.7c0-3.1,1.9-4.9,4.7-4.9
	c0.9,0,1.9,0.1,2.8,0.2v3.1h-1.6c-1-0.1-1.9,0.6-2,1.6c0,0.1,0,0.3,0,0.4v2.3H18L17.4,16h-2.9v8.7c6.1-1,10.5-6.2,10.5-12.3
	C25,5.6,19.4,0,12.5,0z"/>
</svg>
