<?xml version="1.0" encoding="utf-8"?>
<!-- Generator: Adobe Illustrator 26.0.2, SVG Export Plug-In . SVG Version: 6.00 Build 0)  -->
<svg version="1.1" id="レイヤー_1" xmlns="http://www.w3.org/2000/svg" xmlns:xlink="http://www.w3.org/1999/xlink" x="0px"
	 y="0px" width="25px" height="25px" viewBox="0 0 25 25" style="enable-background:new 0 0 25 25;" xml:space="preserve">
<style type="text/css">
	.st0{fill:#FFFFFF;}
</style>
<g>
	<path class="st0" d="M12.5,0C5.6,0,0,5.6,0,12.5S5.6,25,12.5,25S25,19.4,25,12.5S19.4,0,12.5,0z M18.8,10.1c0,0.1,0,0.3,0,0.4v0.1
		c0,4.7-3.9,8.5-8.6,8.5l0,0l0,0l0,0c-1.6,0-3.2-0.5-4.6-1.4c0.2,0,0.5,0,0.7,0c1.4,0,2.7-0.5,3.7-1.3c-1.3,0-2.4-0.9-2.8-2.1
		c0.2,0,0.4,0.1,0.6,0.1c0.3,0,0.5,0,0.8-0.1c-1.4-0.3-2.4-1.5-2.4-3l0,0c0.4,0.2,0.9,0.4,1.4,0.4c-1.3-0.9-1.7-2.6-0.9-4
		c1.5,1.9,3.8,3,6.2,3.1c-0.1-0.2-0.1-0.5-0.1-0.7c0-0.8,0.3-1.6,1-2.2C15,6.8,16.9,6.8,18.1,8c0.7-0.1,1.3-0.4,1.9-0.7
		C19.8,8,19.3,8.6,18.7,9c0.6-0.1,1.2-0.2,1.7-0.5C19.9,9.2,19.4,9.7,18.8,10.1z"/>
	<path class="st0" d="M10.2,19.1L10.2,19.1L10.2,19.1z"/>
</g>
</svg>
