<svg id="グループ_942" data-name="グループ 942" xmlns="http://www.w3.org/2000/svg" xmlns:xlink="http://www.w3.org/1999/xlink" width="108.122" height="24.138" viewBox="0 0 108.122 24.138">
  <defs>
    <clipPath id="clip-path">
      <rect id="長方形_1525" data-name="長方形 1525" width="108.122" height="24.137" transform="translate(0 0)" fill="#211815"/>
    </clipPath>
  </defs>
  <g id="グループ_941" data-name="グループ 941" transform="translate(0 0)" clip-path="url(#clip-path)">
    <path id="パス_18292" data-name="パス 18292" d="M33.762,3.769A4.318,4.318,0,0,0,30.713.72C28.024,0,17.241,0,17.241,0S6.458,0,3.769.72A4.318,4.318,0,0,0,.721,3.769,44.864,44.864,0,0,0,0,12.069a44.867,44.867,0,0,0,.721,8.3,4.318,4.318,0,0,0,3.048,3.048c2.689.721,13.472.721,13.472.721s10.783,0,13.472-.721a4.318,4.318,0,0,0,3.048-3.048,44.867,44.867,0,0,0,.721-8.3,44.864,44.864,0,0,0-.721-8.3M13.793,17.241V6.9l8.958,5.172Z" transform="translate(0 0)" fill="#211815"/>
    <path id="パス_18293" data-name="パス 18293" d="M171.575,39.6a3.756,3.756,0,0,1-1.455-2.145,14.042,14.042,0,0,1-.431-3.872V31.39a12.724,12.724,0,0,1,.493-3.921,3.934,3.934,0,0,1,1.541-2.158,4.992,4.992,0,0,1,2.75-.678,4.69,4.69,0,0,1,2.688.691,3.958,3.958,0,0,1,1.479,2.157,13.235,13.235,0,0,1,.469,3.909v2.194a13.451,13.451,0,0,1-.456,3.884,3.813,3.813,0,0,1-1.479,2.145,6.065,6.065,0,0,1-5.6-.012m3.822-2.367a7.374,7.374,0,0,0,.284-2.417v-4.71a7.29,7.29,0,0,0-.284-2.38,1.015,1.015,0,0,0-1-.752,1,1,0,0,0-.974.752,7.274,7.274,0,0,0-.284,2.38v4.71a7.674,7.674,0,0,0,.271,2.417.992.992,0,0,0,.986.74,1.013,1.013,0,0,0,1-.74" transform="translate(-121.525 -17.641)" fill="#211815"/>
    <path id="パス_18294" data-name="パス 18294" d="M352.456,33.649v.764a20.1,20.1,0,0,0,.086,2.182,2.069,2.069,0,0,0,.358,1.06,1.017,1.017,0,0,0,.838.333,1.056,1.056,0,0,0,1.048-.592,5.159,5.159,0,0,0,.308-1.973l2.934.173a4.622,4.622,0,0,1,.025.542,4.009,4.009,0,0,1-1.147,3.132,4.669,4.669,0,0,1-3.243,1.036,3.86,3.86,0,0,1-3.526-1.578,9.242,9.242,0,0,1-1.011-4.882V31.208a9.14,9.14,0,0,1,1.048-4.969,4,4,0,0,1,3.588-1.566,4.741,4.741,0,0,1,2.688.641,3.442,3.442,0,0,1,1.319,2,14.433,14.433,0,0,1,.382,3.748v2.589Zm.431-6.362a2.08,2.08,0,0,0-.345,1.048,20.414,20.414,0,0,0-.086,2.207v1.085h2.49V30.542a18.386,18.386,0,0,0-.1-2.207,2.111,2.111,0,0,0-.358-1.06.989.989,0,0,0-.8-.309.97.97,0,0,0-.8.321" transform="translate(-250.031 -17.67)" fill="#211815"/>
    <path id="パス_18295" data-name="パス 18295" d="M137.374,20.022,133.5,6.04h3.378l1.356,6.337q.518,2.343.765,3.995h.1q.172-1.184.764-3.97L141.27,6.04h3.379l-3.921,13.982v6.708h-3.354Z" transform="translate(-95.609 -4.326)" fill="#211815"/>
    <path id="パス_18296" data-name="パス 18296" d="M218.316,25.676V40.792h-2.663l-.3-1.849h-.074a3.481,3.481,0,0,1-3.255,2.1,2.557,2.557,0,0,1-2.219-.986,5.3,5.3,0,0,1-.715-3.083V25.676h3.4v11.1a3.387,3.387,0,0,0,.222,1.442.767.767,0,0,0,.74.431,1.508,1.508,0,0,0,.851-.271,1.68,1.68,0,0,0,.6-.69V25.676Z" transform="translate(-149.745 -18.388)" fill="#211815"/>
    <path id="パス_18297" data-name="パス 18297" d="M279.813,25.676V40.792h-2.663l-.3-1.849h-.074a3.481,3.481,0,0,1-3.255,2.1,2.557,2.557,0,0,1-2.219-.986,5.3,5.3,0,0,1-.715-3.083V25.676h3.4v11.1a3.387,3.387,0,0,0,.222,1.442.767.767,0,0,0,.74.431,1.508,1.508,0,0,0,.851-.271,1.68,1.68,0,0,0,.6-.69V25.676Z" transform="translate(-193.786 -18.388)" fill="#211815"/>
    <path id="パス_18298" data-name="パス 18298" d="M248.718,8.779h-3.378V26.73H242.01V8.779h-3.378V6.042h10.085Z" transform="translate(-170.899 -4.327)" fill="#211815"/>
    <path id="パス_18299" data-name="パス 18299" d="M319.523,12.1a3.888,3.888,0,0,0-1-2.071,2.683,2.683,0,0,0-1.9-.641,3.148,3.148,0,0,0-1.751.53,3.6,3.6,0,0,0-1.258,1.393h-.025V3.347h-3.279V24.8h2.811l.345-1.43h.074a2.886,2.886,0,0,0,1.184,1.208,3.508,3.508,0,0,0,1.751.444,2.68,2.68,0,0,0,2.54-1.59,11.449,11.449,0,0,0,.814-4.969V16.071a19.868,19.868,0,0,0-.308-3.97M316.4,18.267a19.125,19.125,0,0,1-.136,2.589,2.8,2.8,0,0,1-.456,1.331,1.054,1.054,0,0,1-.863.395,1.575,1.575,0,0,1-.777-.2,1.483,1.483,0,0,1-.58-.592V13.212a2.15,2.15,0,0,1,.592-1.011,1.31,1.31,0,0,1,.912-.395.92.92,0,0,1,.8.407,3.13,3.13,0,0,1,.395,1.369,25.509,25.509,0,0,1,.111,2.737Z" transform="translate(-222.234 -2.397)" fill="#211815"/>
  </g>
</svg>
